<?xml version="1.0" standalone="no"?>
<!DOCTYPE svg PUBLIC "-//W3C//DTD SVG 20010904//EN"
 "http://www.w3.org/TR/2001/REC-SVG-20010904/DTD/svg10.dtd">
<svg version="1.0" xmlns="http://www.w3.org/2000/svg"
 width="116.000000pt" height="116.000000pt" viewBox="0 0 116.000000 116.000000"
 preserveAspectRatio="xMidYMid meet">

<g transform="translate(0.000000,116.000000) scale(0.100000,-0.100000)"
fill="#000000" stroke="none">
<path d="M505 1150 c-224 -30 -403 -181 -472 -398 -23 -74 -25 -94 -21 -195 8
-167 58 -281 176 -394 59 -57 188 -127 255 -139 l37 -6 0 196 0 196 -70 0 -70
0 0 90 0 90 68 0 69 0 6 96 c8 117 32 173 88 211 52 34 111 45 197 37 l72 -6
0 -79 0 -79 -63 0 c-84 0 -98 -15 -105 -110 l-5 -70 83 0 83 0 -7 -62 c-15
-125 -9 -118 -87 -118 l-69 0 0 -196 0 -197 43 7 c23 3 78 24 123 46 149 73
272 229 304 387 19 88 8 243 -22 324 -30 81 -101 183 -165 238 -116 100 -293
151 -448 131z"/>
</g>
</svg>
